# xmcd
#
# Track frame offsets:
#	150
#	13955
#	26862
#	38657
#	51317
#	66767
#	80477
#	97270
#	111055
#	124040
#	136870
#	151960
#	166222
#	180875
#	194905
#
# Disc length: 2787 seconds
#
# Revision: 1
# Processed by: cddbd v1.5.1PL0 Copyright (c) Steve Scherf et al.
# Submitted via: CDex 1.50Beta5
#
DISCID=cc0ae10f
DTITLE=水木一郎 - ロボットアニメメモリアルVOL.2 鋼鉄ジーグ/大空魔竜ガイキング
DYEAR=1998
DGENRE=
TTITLE0=水木一郎/鋼鉄ジーグのうた
TTITLE1=水木一郎/ひろしのテーマ
TTITLE2=ささきいさお/とべ!グレンダイザー
TTITLE3=ささきいさお/宇宙の王者グレンダイザー
TTITLE4=ささきいさお/大空魔竜ガイキング
TTITLE5=ささきいさお/星空のガイキング
TTITLE6=ささきいさお/いざ行け!ロボット軍団
TTITLE7=水木一郎/たたかえ!ガ・キーン
TTITLE8=水木一郎/猛と舞のうた
TTITLE9=ささきいさお/すきだッ ダンガードA
TTITLE10=ささきいさお/その名もタクマ宇宙パイロット
TTITLE11=水木一郎/超人戦隊バラタック
TTITLE12=堀江美都子/なかまっていいな
TTITLE13=水木一郎/ゲッターロボ號
TTITLE14=水木一郎/友だちになりたい
EXTD=
EXTT0=
EXTT1=
EXTT2=
EXTT3=
EXTT4=
EXTT5=
EXTT6=
EXTT7=
EXTT8=
EXTT9=
EXTT10=
EXTT11=
EXTT12=
EXTT13=
EXTT14=
PLAYORDER=
